<!--?xml version="1.0" encoding="utf-8"?-->
<!-- Generator: Adobe Illustrator 18.1.1, SVG Export Plug-In . SVG Version: 6.00 Build 0)  -->

<svg version="1.1" id="_x32_" xmlns="http://www.w3.org/2000/svg" xmlns:xlink="http://www.w3.org/1999/xlink" x="0px" y="0px" viewBox="0 0 512 512" style="opacity: 1;" xml:space="preserve">
<style type="text/css">
	.st0{fill:#4B4B4B;}
</style>
<g>
	<path class="st0" d="M494.017,230.848c-10.067-10.088-23.752-16.689-38.87-17.788c-9.444-44.385-33.152-83.464-66.139-112.151
		c-36.025-31.351-83.239-50.37-134.744-50.362c-51.433-0.008-98.574,18.954-134.586,50.232
		C86.51,129.545,62.687,168.82,53.286,213.421c-13.692,1.81-26.039,8.142-35.302,17.427C6.89,241.92-0.007,257.357,0,274.27
		c-0.007,16.905,6.89,32.356,17.984,43.414c11.066,11.094,26.509,17.991,43.414,17.984c1.172,0,2.323-0.058,3.467-0.123
		c14.792,35.172,39.015,65.35,69.569,87.336c33.703,24.273,75.156,38.58,119.83,38.573c44.869,0.007,86.489-14.438,120.271-38.892
		c30.432-22.022,54.545-52.193,69.244-87.321c2.243,0.253,4.509,0.427,6.817,0.427c16.912,0.007,32.349-6.89,43.422-17.984
		c11.087-11.058,17.991-26.509,17.983-43.414C512.008,257.357,505.104,241.92,494.017,230.848z M231.597,80.355
		c7.426-0.948,14.981-1.47,22.666-1.47c10.421,0,20.611,0.926,30.518,2.656c1.02,1.172,2.084,2.54,3.14,4.133
		c4.48,6.788,8.996,17.455,9.018,34.332c0,12.766-2.678,29.143-10.255,49.768c-23.918-19.228-37.538-36.945-45.252-51.549
		c-8.388-15.907-9.901-28.202-9.908-35.324C231.525,81.947,231.56,81.115,231.597,80.355z M214.525,83.373
		c0.058,9.618,2.302,24.692,11.869,42.792c4.284,8.112,10.023,16.818,17.637,25.937c-7.606-3.068-15.234-5.927-22.391-8.959
		c-12.325-5.196-23.144-11-30.475-18.736c-3.684-3.879-6.578-8.214-8.641-13.461c-1.701-4.364-2.794-9.459-3.127-15.465
		C190.527,90.277,202.273,86.173,214.525,83.373z M473.978,297.645c-6.029,6.006-14.2,9.675-23.383,9.69
		c-3.792-0.008-7.432-0.68-10.95-1.91l-13.417-4.718l-4.668,13.432c-12.021,34.6-34.499,64.373-63.642,85.468
		c-29.157,21.089-64.886,33.5-103.655,33.507c-38.595-0.007-74.186-12.31-103.279-33.232
		c-29.085-20.922-51.563-50.471-63.707-84.832l-4.4-12.433l-12.716,3.495c-2.902,0.789-5.804,1.224-8.764,1.224
		c-9.177-0.015-17.354-3.684-23.375-9.69c-6.006-6.029-9.676-14.199-9.69-23.376c0.015-9.176,3.684-17.348,9.69-23.383
		c6.021-6,14.198-9.669,23.375-9.676c0.58-0.007,1.441,0.044,2.634,0.138l13.15,1.035l1.968-13.048
		c6.426-42.561,28-80.164,59.097-107.158c7.773-6.737,16.124-12.809,24.982-18.135c0.768,4.805,1.947,9.314,3.597,13.446
		c2.606,6.564,6.274,12.252,10.609,17.108c7.614,8.525,17.137,14.518,27.074,19.432c14.922,7.338,31.046,12.411,44.593,18.736
		c6.774,3.148,12.868,6.564,17.869,10.501c5.015,3.959,8.93,8.351,11.716,13.685c1.498,2.887,4.487,4.653,7.744,4.58
		c3.25-0.079,6.152-1.982,7.512-4.943c14.698-31.842,19.996-56.897,20.003-76.581c0.022-13.418-2.511-24.28-6.064-32.827
		c23.289,7.388,44.493,19.438,62.527,35.114c31.119,27.066,52.678,64.778,59.017,107.426l2.092,14.076l14.061-2.15
		c1.868-0.282,3.524-0.434,5.016-0.434c9.183,0.007,17.354,3.676,23.383,9.676c6.006,6.035,9.675,14.206,9.675,23.383
		C483.653,283.447,479.984,291.617,473.978,297.645z" style="fill: rgb(75, 75, 75);"></path>
	<path class="st0" d="M183.262,201.017c-10.277,0-19.685,4.198-26.408,10.949c-6.752,6.724-10.949,16.124-10.942,26.408
		c-0.007,10.284,4.191,19.685,10.942,26.408c6.723,6.745,16.131,10.949,26.408,10.943c10.284,0.006,19.684-4.198,26.414-10.943
		c6.738-6.723,10.943-16.124,10.935-26.408c0.008-10.276-4.197-19.684-10.935-26.408
		C202.946,205.215,193.545,201.017,183.262,201.017z M195.644,250.757c-3.199,3.184-7.512,5.124-12.382,5.131
		c-4.864-0.008-9.184-1.947-12.382-5.131c-3.184-3.198-5.124-7.519-5.131-12.382c0.008-4.863,1.947-9.183,5.131-12.382
		c3.198-3.184,7.519-5.131,12.382-5.131c4.87,0,9.183,1.947,12.382,5.124c3.184,3.207,5.124,7.52,5.13,12.39
		C200.768,243.238,198.828,247.558,195.644,250.757z" style="fill: rgb(75, 75, 75);"></path>
	<path class="st0" d="M328.738,201.017c-10.284,0-19.684,4.198-26.414,10.949c-6.738,6.724-10.942,16.132-10.935,26.408
		c-0.007,10.284,4.198,19.685,10.935,26.408c6.73,6.745,16.131,10.949,26.414,10.943c10.276,0.006,19.678-4.198,26.408-10.943
		c6.738-6.723,10.949-16.124,10.942-26.408c0.007-10.276-4.205-19.684-10.942-26.408
		C348.416,205.215,339.015,201.017,328.738,201.017z M341.114,250.757c-3.198,3.184-7.504,5.124-12.375,5.131
		c-4.87-0.008-9.183-1.947-12.382-5.131c-3.191-3.198-5.131-7.519-5.131-12.382c0-4.87,1.94-9.183,5.131-12.39
		c3.199-3.177,7.512-5.124,12.382-5.124c4.871,0,9.177,1.947,12.375,5.124c3.192,3.207,5.131,7.52,5.138,12.39
		C346.245,243.238,344.305,247.558,341.114,250.757z" style="fill: rgb(75, 75, 75);"></path>
	<path class="st0" d="M256,293.165c-17.224,0-31.176,23.259-31.176,51.954c0,28.695,13.953,51.954,31.176,51.954
		c17.216,0,31.17-23.26,31.17-51.954C287.17,316.425,273.216,293.165,256,293.165z" style="fill: rgb(75, 75, 75);"></path>
</g>
</svg>
