<?xml version="1.0" encoding="UTF-8"?>
<!DOCTYPE svg PUBLIC "-//W3C//DTD SVG 1.1//EN" "http://www.w3.org/Graphics/SVG/1.1/DTD/svg11.dtd">
<svg xmlns="http://www.w3.org/2000/svg" version="1.1" width="300px" height="300px" style="shape-rendering:geometricPrecision; text-rendering:geometricPrecision; image-rendering:optimizeQuality; fill-rule:evenodd; clip-rule:evenodd" xmlns:xlink="http://www.w3.org/1999/xlink">
<g><path style="opacity:0.947" fill="#000000" d="M 80.5,15.5 C 92.8838,13.5707 104.217,16.0707 114.5,23C 120.318,27.7385 120.818,32.9052 116,38.5C 114.667,39.8333 113.333,41.1667 112,42.5C 105.406,57.3502 98.5729,72.0169 91.5,86.5C 127.89,81.9859 163.557,74.1526 198.5,63C 200.874,60.961 202.874,58.6277 204.5,56C 209.746,54.4941 215.079,54.1608 220.5,55C 229.055,58.226 236.555,63.0594 243,69.5C 244.734,72.2978 245.901,75.2978 246.5,78.5C 246.594,80.9116 245.594,82.745 243.5,84C 239.05,86.2612 234.383,87.9278 229.5,89C 218.878,102.891 207.545,116.224 195.5,129C 189.434,133.395 183.1,137.395 176.5,141C 169.527,143.324 162.527,145.658 155.5,148C 152.558,149.124 149.558,149.458 146.5,149C 145.72,147.927 145.887,146.76 147,145.5C 153.404,141.765 159.237,137.265 164.5,132C 178.46,117.713 191.293,102.547 203,86.5C 204.737,83.6028 206.237,80.6028 207.5,77.5C 203.207,77.0969 198.874,77.5969 194.5,79C 171.078,86.4742 147.744,94.1409 124.5,102C 120.167,102.667 115.833,102.667 111.5,102C 104.63,100.231 97.9635,97.8977 91.5,95C 89.4213,94.1923 87.4213,94.359 85.5,95.5C 72.0421,117.628 53.3754,133.628 29.5,143.5C 27.8987,142.965 27.3987,141.965 28,140.5C 37.4241,130.413 46.0908,119.747 54,108.5C 68.9121,84.1766 80.4121,58.3433 88.5,31C 87.8333,30 87.1667,29 86.5,28C 81.6355,26.074 77.3022,23.4073 73.5,20C 73.6448,19.228 73.9781,18.5613 74.5,18C 76.6115,17.1553 78.6115,16.322 80.5,15.5 Z"/></g>
<g><path style="opacity:0.951" fill="#000000" d="M 109.5,117.5 C 119.985,116.051 129.652,118.218 138.5,124C 140.705,127.987 142.038,132.321 142.5,137C 140.44,143.059 139.273,149.226 139,155.5C 141.854,157.598 144.521,159.931 147,162.5C 152.852,170.864 159.185,178.864 166,186.5C 172.532,192.698 178.699,199.198 184.5,206C 197.796,216.96 210.796,228.294 223.5,240C 240.724,250.113 258.39,259.446 276.5,268C 280.966,273.082 284.466,278.582 287,284.5C 286.275,285.059 285.442,285.392 284.5,285.5C 280.987,284.879 277.487,284.213 274,283.5C 258.783,285.625 243.616,285.458 228.5,283C 217.742,274.913 207.576,266.08 198,256.5C 175.786,229.731 154.786,202.065 135,173.5C 127.965,198.574 115.965,220.907 99,240.5C 92.1975,246.301 85.6975,252.468 79.5,259C 72.4551,263.523 65.1217,267.523 57.5,271C 48.2146,272.871 38.8813,274.538 29.5,276C 26.5,276.667 23.5,276.667 20.5,276C 19.1667,275 19.1667,274 20.5,273C 28.9486,270.777 36.9486,267.443 44.5,263C 75.0043,242.547 96.8376,215.047 110,180.5C 116.282,165.763 118.948,150.43 118,134.5C 113.167,130.333 108.333,126.167 103.5,122C 105.141,119.837 107.141,118.337 109.5,117.5 Z"/></g>
</svg>
