<svg width="100%" height="100%" viewBox="0 0 100 100" version="1.1" xmlns="http://www.w3.org/2000/svg" xmlns:xlink="http://www.w3.org/1999/xlink" xml:space="preserve" style="fill-rule:evenodd;clip-rule:evenodd;stroke-linejoin:round;stroke-miterlimit:1.41421;">
    <g transform="matrix(1,0,0,1,-28.8535,39.8509)">
        <path d="M79.457,11.349C75.356,31.759 62.758,45.92 41.664,53.83L36.342,47.043C61.863,39.523 74.623,22.124 74.623,-5.155L74.623,-10.477L60.024,-10.477C56.02,-0.776 50.893,7.655 44.643,14.816L38.93,9.103C48.631,-1.574 55.434,-15.897 59.34,-33.866L66.957,-32.059C65.72,-27.111 64.256,-22.147 62.563,-17.166L113.539,-17.166L118.959,-13.163C113.588,-2.258 108.152,6.743 102.651,13.839L96.157,9.25C101.072,3.586 105.336,-2.99 108.95,-10.477L82.241,-10.477L82.241,-4.862C82.241,4.643 86.049,14.344 93.666,24.24C100.209,32.834 109.698,39.67 122.133,44.748L116.323,52.023C96.531,41.639 84.242,28.081 79.457,11.349Z" style="fill-rule:nonzero;"/>
    </g>
</svg>
